# xmcd
#
# Track frame offsets: 
#        183
#        25095
#        42173
#
# Disc length: 755 seconds
#
# Revision: 1
# Processed by: cddbd v1.5.1PL2 Copyright (c) Steve Scherf et al.
# Submitted via: ExactAudioCopy v0.95b4
#
DISCID=1902f103
DTITLE=John Wilson - solitude ?????????
DYEAR=2002
DGENRE=J-Pop
TTITLE0=solitude ?????????
TTITLE1=????
TTITLE2=?×????
EXTD=YEAR: 2002
EXTT0=
EXTT1=
EXTT2=
PLAYORDER=
